<svg width="24" height="24" viewBox="0 0 24 24" fill="none" xmlns="http://www.w3.org/2000/svg">
<path d="M13.1 18.3504C12.472 18.8781 11.5078 18.8781 10.8861 18.3443L10.7973 18.2706C6.46461 14.632 3.64173 12.2574 3.74957 9.29371C3.80032 7.99902 4.51714 6.74729 5.67801 6.01711C7.85386 4.63038 10.5372 5.28079 11.9962 6.8516C13.4425 5.26852 16.1259 4.62424 18.3144 6.01097C19.4753 6.74115 20.1921 7.99289 20.2428 9.28758C20.3634 12.2574 17.5278 14.632 13.2015 18.2829C13.1761 18.2829 13.1 18.3504 13.1 18.3504Z" fill="#FFD262"/>
<path d="M16.1005 8.01123C16.8617 8.48984 17.2867 9.31206 17.3248 10.1588" stroke="#222222" stroke-miterlimit="10" stroke-linecap="round" stroke-linejoin="round"/>
<path d="M13.1 18.3504C12.472 18.8781 11.5078 18.8781 10.8861 18.3443L10.7973 18.2706C6.46461 14.632 3.64173 12.2574 3.74957 9.29371C3.80032 7.99902 4.51714 6.74729 5.67801 6.01711C7.85386 4.63038 10.5372 5.28079 11.9962 6.8516C13.4425 5.26852 16.1259 4.62424 18.3144 6.01097C19.4753 6.74115 20.1921 7.99289 20.2428 9.28758C20.3634 12.2574 17.5278 14.632 13.2015 18.2829C13.1761 18.2829 13.1 18.3504 13.1 18.3504Z" stroke="#222222" stroke-miterlimit="10" stroke-linecap="round" stroke-linejoin="round"/>
</svg>
