<svg width="48" height="48" viewBox="0 0 48 48" fill="none" xmlns="http://www.w3.org/2000/svg">
<rect width="48" height="48" rx="24" fill="#4AB0E1"/>
<path d="M28.717 29.1343C28.1848 30.9368 30.332 32.121 31.4721 32.4878C32.6968 31.7751 33.2697 30.0757 33.403 29.315C32.1363 28.564 29.2491 27.3318 28.717 29.1343Z" fill="#FFD262"/>
<path d="M31.3608 32.4878C30.2207 32.121 28.0735 30.9368 28.6056 29.1343C29.1378 27.3318 32.0249 28.564 33.2917 29.315" stroke="#222222"/>
<path d="M19.1082 34.5578C23.3006 35.606 32.1311 35.6584 33.913 27.4829" stroke="#222222" stroke-linecap="round" stroke-linejoin="round"/>
<path d="M30.4059 19.4884C31.7755 18.9869 35.9363 18.3459 37.117 18.3665" stroke="#222222" stroke-linecap="round" stroke-linejoin="round"/>
<path d="M30.2662 19.5471C32.257 19.4866 35.9578 20.6168 37.4814 21.9122" stroke="#222222" stroke-linecap="round" stroke-linejoin="round"/>
<path d="M37.2646 15.6535C35.6167 16.0378 31.908 17.3436 30.2571 19.4918" stroke="#222222" stroke-linecap="round" stroke-linejoin="round"/>
<ellipse cx="19.381" cy="18.9841" rx="3.95236" ry="5.26982" fill="white"/>
<ellipse cx="21.1365" cy="17.8862" rx="2.19576" ry="2.85448" fill="#222222"/>
</svg>
