<svg width="18" height="18" viewBox="0 0 18 18" fill="none" xmlns="http://www.w3.org/2000/svg">
<path d="M5.13635 5.88375C5.13635 4.6575 6.15448 3.65625 7.3976 3.65625C8.64073 3.65625 9.65885 4.6575 9.65885 5.88375C9.65885 7.11 8.64073 8.11125 7.3976 8.11125C6.15448 8.11125 5.13635 7.11 5.13635 5.88375Z" stroke="#677AC7" stroke-miterlimit="10" stroke-linecap="round" stroke-linejoin="round"/>
<path d="M1.96875 12.7743C1.96875 13.6405 2.88 14.3436 4.005 14.3436H10.7944C11.9194 14.3436 12.8306 13.6405 12.8306 12.7743V12.5774C12.8306 10.8449 10.4006 9.44427 7.4025 9.44427C4.40437 9.44427 1.97437 10.8505 1.97437 12.5774V12.7743H1.96875Z" stroke="#677AC7" stroke-miterlimit="10" stroke-linecap="round" stroke-linejoin="round"/>
<path d="M11.3849 4.40453C11.5367 4.36515 11.6942 4.34265 11.8517 4.34265C12.808 4.34265 13.5899 5.11328 13.5899 6.05265C13.5899 6.99203 12.808 7.76265 11.8517 7.76265C11.548 7.76265 11.2555 7.6839 11.008 7.54328" stroke="#677AC7" stroke-miterlimit="10" stroke-linecap="round" stroke-linejoin="round"/>
<path d="M14.4671 13.1122C15.3334 13.1122 16.0309 12.5722 16.0309 11.9084V11.7566C16.0309 10.5809 14.5684 9.59655 12.6334 9.38843" stroke="#677AC7" stroke-miterlimit="10" stroke-linecap="round" stroke-linejoin="round"/>
</svg>
